<?xml version="1.0" encoding="utf-8"?>
<!-- Generator: Adobe Illustrator 17.0.0, SVG Export Plug-In . SVG Version: 6.00 Build 0)  -->
<!DOCTYPE svg PUBLIC "-//W3C//DTD SVG 1.1//EN" "http://www.w3.org/Graphics/SVG/1.1/DTD/svg11.dtd">
<svg version="1.1" id="Layer_1" xmlns="http://www.w3.org/2000/svg" xmlns:xlink="http://www.w3.org/1999/xlink" x="0px" y="0px"
	 width="576px" height="576px" viewBox="0 0 576 576" enable-background="new 0 0 576 576" xml:space="preserve">
<path fill-rule="evenodd" clip-rule="evenodd" d="M299.267,216.308c12.119-1.607,17.414,8.411,17.414,8.411
	C312.465,222.7,299.267,216.308,299.267,216.308 M174.376,500.742c0,0,18.597-1.895,26.416,6.16
	C200.792,506.901,187.288,505.125,174.376,500.742z M125.22,530.95c6.529-2.916,12.823-6.545,17.769-14.215
	C140.099,525.756,133.481,529.513,125.22,530.95z M167.667,349.478c3.626-5.331,8.921-10.661,20.051-15.991
	c2.33-1.115,4.253-0.071,0.612,1.88C182.468,338.513,170.041,347.998,167.667,349.478z M95.719,505.125
	c8.766,5.094,19.664,13.149,19.664,13.149l-8.055-10.543l20.138,9.121l-6.397,9.596l8.885-6.515
	c-5.212,13.86-25.232,13.979-25.232,13.979l-1.422-10.661l-2.724,8.766c-12.611-0.085-20.027-2.117-23.158-3.231
	c-7.407-2.635-5.702-12.875-2.963-18.425C78.028,503.123,88.849,502.301,95.719,505.125z M55.09,240.095
	c-3.08,4.62-8.411,16.821-8.411,16.821C46.874,250.79,50.022,243.671,55.09,240.095z M260.895,62.198c0,0-20.612-7.226-34.59-14.57
	C226.334,46.909,252.751,53.86,260.895,62.198z M316.83,146.445c-2.988-18.117-2.025-19.511-18.48-25.943l7.463-1.896l-10.661-6.633
	C318.724,117.394,317.766,124.019,316.83,146.445z M393.166,260.618c0,0-2.562-9.437-11.135-17.295
	C382.031,243.323,392.099,246.403,393.166,260.618z M356.326,253.037c-2.361-7.725,7.462-17.176,7.462-17.176
	C356.499,247.083,356.326,253.037,356.326,253.037z M215.84,519.223c1.129,4.837,2.773,17.88-4.62,18.479
	C214.295,535.446,215.582,523.045,215.84,519.223z M305.664,146.89c-5.805-4.975-17.413-13.978-17.413-13.978
	C294.164,134.988,304.206,140.325,305.664,146.89z M269.898,81.151c-3.483-6.723-7.134-3.2-10.78-0.118
	c3.552-13.595,13.651-2.382,15.53,4.692c1.9,7.143,1.915,15.677,1.765,24.33l-2.961,0.118
	C273.349,100.066,273.195,89.98,269.898,81.151z M99.273,241.517l20.493-11.491C119.767,230.026,111.118,240.444,99.273,241.517z
	 M150.685,238.91l0.237,13.386C138.352,255.438,129.221,241.864,150.685,238.91z M260.198,329.462
	c-2.843-7.818,2.606-22.271,2.606-22.271C263.664,312.354,264.964,326.286,260.198,329.462z M195.644,78.405
	c0,2.208-1.79,3.997-3.997,3.997c-2.208,0-3.997-1.789-3.997-3.997c0-2.208,1.79-3.997,3.997-3.997
	C193.854,74.408,195.644,76.198,195.644,78.405z M101.287,500.268c0,0,15.755,2.369,20.375,8.41
	C121.662,508.679,111.474,507.139,101.287,500.268z M132.935,452.696c-3.393,19.835-3.91,37.459-3.196,54.135
	c-8.023-8.424-17.724-13.056-29.378-13.267c-0.535-15.423-0.747-31.267,1.892-50.819
	C113.922,443.819,124.108,447.199,132.935,452.696z M301.82,161.837c-0.241-3.545,0.644-7.601,4.808-3.801l12.409,11.311
	l-10.78-2.132c11.21,4.574,19.155,10.905,22.152,19.901l-9.713,0.83c5.521,2.051,10.73,3.939,16.312,5.739
	c6.07,1.959,10.775,11.365,5.347,16.162l-8.007,7.078c-6.487,5.735-6.717,6.292-15.605,1.631l-17.949-9.406l-0.355-13.386
	l-3.199,13.268c-3.713-2.267-7.299-4.604-10.042-7.4c-5.366-5.472-3.279-10.535,1.152-15.763
	C298.792,173.532,302.75,175.503,301.82,161.837z M281.499,185.389l19.072-18.835C297.32,174.582,289.729,182.597,281.499,185.389z
	 M276.539,295.699c-1.502-10.086,1.821-22.715,7.7-30.918C282.267,273.82,279.795,287.845,276.539,295.699z M304.072,281.91
	c2.896-8.148,4.866-26.053,11.069-29.472c-0.347,5.36-0.248,13.984-1.84,18.813c-2.32,7.045-5.073,14.358-6.792,21.54l-4.635,19.35
	l-0.593-8.885l-4.738,9.713C295.055,308.222,301.321,289.647,304.072,281.91z M290.396,244.527
	c-1.895-10.188,4.976-20.849,4.976-20.849C295.025,228.162,293.441,242.396,290.396,244.527z M244.803,157.937
	c11.918-0.427,22.533-5.535,31.865-12.675C269.662,154.934,256.865,161.725,244.803,157.937z M258.292,223.441
	c-3.08-9.714,4.739-26.534,4.739-26.534C262.543,202.697,260.8,219.891,258.292,223.441z M150.922,414.465h3.317
	c0,0,2.606,10.424-5.213,13.86C149.026,428.325,152.58,420.388,150.922,414.465z M153.775,394.411l7.226,3.909l-8.053,1.066
	l-2.251,9.714c-7.411-5.861-15.964-9.933-25.587-12.319c9.519,3.907,17.529,8.569,22.626,14.689l-6.871-1.422
	c2.815,10.242,6.573,16.433-6.988,19.546l8.65,5.568c1.534,7.33,0.562,11.904-1.066,15.755
	c-9.973-7.345-22.486-12.754-39.092-15.044l2.014-8.648c6.367,6.665,17.855,7.378,30.088,7.226
	c-11.689-1.227-21.586-5.029-29.14-12.201c0.322-9.124,1.889-17.964,5.686-26.297c11.423-1.425,21.843,0.26,31.688,3.731
	c-7.941-6.352-19.475-6.032-30.799-6.1l2.132-3.198l13.919,0.711c-4.136-2.841-8.487-3.965-12.793-5.449
	c1.242-7.864,4.743-18.634,8.225-29.379c11.284-2.597,24.667,0.306,39.269,6.398l-10.188,0.118
	C158.322,371.809,155.942,383.14,153.775,394.411z M197.476,515.904c2.228-1.193,5.24-2.139,7.819-2.22
	c3.794-0.118,6.654,1.635,4.718,7.23c-1.446,4.173-3.96,12.416-3.534,18.208c0,0-6.042,2.133-9.832-0.355
	c0,0-11.608-2.132-21.678-2.132c-5.883,1.569-11.882,0.497-15.691-4.46c-5.224-6.797-0.444-18.883,5.441-23.716
	c2.669-2.191,5.356-1.938,9.072-0.631c2.919,1.027,8.743,2.956,14.208,4.049c0,0-6.516-3.909-12.676-5.923
	C175.324,505.954,192.502,505.124,197.476,515.904z M179.232,439.125c10.062,10.43,26.818,13.536,44.718,5.686
	c-0.513,3.554-1.204,8.174-1.717,11.728l3.554,1.54l-22.152,0.355c5.261,2.346,10.807,3.933,15.047,9.003
	c-2.119,14.67-3.466,27.741-4.499,42.528c-8.65-15.954-26.695-13.668-42.171-14.215l9.952-37.195l7.107-2.961l-11.846-2.843
	C177.226,448.876,177.65,444.579,179.232,439.125z M249.442,84.403c-8.074-9.311-18.73-15.858-30.869-18.76
	c-14.263-3.409-25.609,0.124-34.945,8.445c0.099-27.449,42.467-17.783,55.327-11.843c-9.1-6.051-22.489-8.637-39.803-8.055
	c14.613-9.594,45.714,3.567,56.502,15.516c4.124-4.261,8.472-5.495,13.386,0.829c-11.359-4.548-11.001,5.428-12.675,13.623
	c-10.337-13.751-22.001-19.54-34.235-21.915c10.627,3.829,27.041,13.182,32.876,23.158c6.818,11.662,4.559,33.067-4.531,43.324
	C256.791,115.199,260.028,96.616,249.442,84.403z M63.259,235.032c0,0,11.49,5.094,16.584,15.874
	c-1.899,3.295-4.458,5.55-7.463,7.107c0.793-1.663,1.678-3.254,1.659-5.568c0,0-2.935,5.396-5.419,7.64
	c-2.528,2.288-4.846,1.781-3.747-1.794c0.53-1.723,2.162-6.31,5.02-8.215c0,0-5.613,0.109-6.855,9.266
	c-0.247,1.82,0.312,3.015,1.58,4.212c3.471,3.282,0.187,8.391-2.827,4.953c-3.443-3.932-4.947-8.005-5.084-13.133
	c-0.084-3.135,0.45-7.563,3.312-11.478C62.082,241.077,63.657,238.92,63.259,235.032z M195.375,301.645l25.587,0.829l2.489,4.264
	h30.325v3.673h-44.659l42.172,18.361h-9.594l-1.241,14.038l-9.655-1.658c5.455,2.466,13.589,4.799,22.211,7.108l-14.329-0.592
	v17.413l5.865,4.028c-5.273-2.421-23.455-11.156-35.419-2.724c6.586,0.875,13.148,1.36,19.829,3.732
	c4.707,1.672,7.648,1.158,4.655,6.985l-4.224,8.236l10.424,3.791l-11.609,0.829l-0.118,12.794l5.212,0.948
	c-7.153,2.261-14.101,2.486-21.086,3.08c7.894,2.083,16.894,3.529,15.992,10.661c-10.085-4.768-19.885-7.631-29.496-9.24
	c10.781,3.797,20.92,7.689,25.35,12.438l-8.172-1.895l5.331,7.699v4.739l-5.151,0.059l4.857,2.133l0.001,6.811l-9.122,0.77
	l10.247,1.599c-15.544,6.192-29.35,3.107-42.051-5.864l4.146-21.56l16.821-1.776l-14.57-1.422
	c2.796-20.352,10.136-40.38,17.416-60.411l-7.226,8.529l0.474-13.504l5.449-1.303l-6.278-1.659
	c4.587-29.003-28.092,0.556-36.423,6.753l8.351,7.996c-13.011-7.944-26.021-13.527-39.032-11.668
	c4.651-16.076,12.704-23.844,23.398-35.477l-4.205-2.428c14.221,0.305,28.973,1.84,45.725,7.996
	c-6.372-6.073-21.913-7.896-38.115-9.627c-5.083-0.542-0.767-9.868,3.786-9.765c4.908,0.111,10.144,1.206,15.645,3.095v6.278
	l20.019,2.488V301.645z M246.91,252.929c3.699,0.079,11.633,0.699,20.359,1.137l0.194-1.199c-5.457-0.955-8.103-2.772-8.103-2.772
	c2.994-0.083,5.876-0.104,8.595-0.083c3.675-20.508,11.361-47.88,11.392-47.992l0.349-1.253l1.084,0.717l14.36,9.503
	c2.652,1.755,1.627,3.345-1.118,1.529l-13.202-8.737c-1.532,5.556-7.77,28.559-10.978,46.255
	c11.881,0.179,20.198,1.128,20.198,1.128c-8.881,2.422-15.763,2.587-20.738,1.979l-0.166,1.017
	c10.071,0.466,20.855,0.627,27.232-0.591c0.406,3.171-12.452,5.543-27.83,4.682c-0.422,3.238-0.653,6.073-0.619,8.289
	c0.071,4.651-1.832,4.041-1.875,0.06c-0.025-2.292,0.211-5.185,0.637-8.469c-5.472-0.395-11.202-1.203-16.723-2.528
	c2.088,2.726,2.547,6.364,1.679,10.746l10.306-1.659c-8.303,4.498-12.467,10.032-14.452,16.11l12.438-0.948
	c-13.064,5.952-25.159,8.267-36.959,9.477v2.843l30.799,3.198v3.672c-20.754,0.112-40.335-0.586-56.979-3.318l0.236-2.844
	l-11.017-3.672l13.149,0.355c-6.904-2.514-14.396-2.669-21.797-3.199l-2.014,6.515c-4.768-0.271-9.525-0.733-14.173-2.922
	c-6.749-3.181-4.438-4.672-2.474-10.938c2.555-8.14,9.184-15.991,9.184-15.991l20.788,0.147v-1.6
	c-23.1-6.515-24.284-10.897-24.284-10.897c12.542-9.873,19.405-25.029,18.953-26.061c8.058,5.671,17.084,9.526,27.667,10.459
	c1.583,15.489,13.273,16.305,25.356,16.501c-0.203-0.14,0.25-0.109,1.034,0.016c2.398,0.034,4.801,0.059,7.132,0.186
	C245.405,252.114,246.197,252.499,246.91,252.929z M216.247,236.827c0,0,23.1-0.119,30.563,11.016
	C246.809,247.843,216.958,251.99,216.247,236.827z M233.77,221.427c-0.829-6.278,4.028-30.325,4.028-30.325
	C239.17,199.841,239.076,214.121,233.77,221.427z M204.702,143.084c14.076,3.351,30.979-6.87,39.308-17.875
	c6.561-8.673,7.714-15.069,7.128-26.192c3.985,7.501,1.085,20.146-3.39,27.319C239.189,140.055,220.439,149.547,204.702,143.084z
	 M178.293,126.681c10.748,21.329,45.116,30.789,67.75,6.961c4.76-5.021,10.396-1.39,11.277,5.382
	c5.76-4.071,9.952-9.937,16.703-15.874c-1.266,9.44-11.292,15.012-21.204,20.612l7.345-0.592
	c-11.209,8.513-26.818,12.258-45.607,12.557v4.027l32.661,3.387c4.409,0.457,8.924,2.801,12.114,6.097
	c3.899,4.032,6.019,8.796-0.589,11.602c-9.832,1.598-21.566,1.029-33.767-0.901c-15.999-2.532-29.112-5.611-47.257-6.561v3.435
	c19.835,1.053,36.655,5.121,53.306,9.358c-1.736,13.939-2.763,29.654-5.21,41.816c-14.491-0.908-37.986-6.555-56.978-9.832
	l0.355-13.149c-2.246,4.411-3.799,9.014-3.199,14.216c3.475,1.699,7.186,2.527,11.135,2.488
	c-4.726,15.9-13.454,23.514-22.625,30.207l5.48-6.575c-10.344-13.886-5.139-44.934-1.242-60.205
	c-6.231,11.42-16.172,32.668-31.747,31.037l-10.898-9.003c3.269,4.714,6.83,9.056,7.818,16.703l-4.028-4.62
	c-5.917,1.49-10.077,3.8-13.623,6.397c-2.235-4.668-5.227-7.574-9.358-7.819c6.11,5.114,8.858,9.576,10.069,13.741
	c-5.581-6.793-6.943-3.934-14.687,2.487c-1.581-3.355-3.948-5.294-7.108-5.804c3.054,2.945,5.441,5.86,4.857,8.648
	c-3.569-1.054-6.146-0.331-6.633,4.146l4.027,1.54c-0.354,4.825-2.88,6.967-5.923,8.471c-2.096-7.95-7.189-14.056-16.458-17.592
	c-3.776-1.438,0.82-8.295,3.061-7.185c4.689,2.322,9.509,4.888,15.174,9.022c-0.529-3.177-5.398-6.716-14.355-10.594
	c-2.813-1.217,0.137-5.367,2.404-4.59l6.442,2.213l-5.27-3.916c-1.506-1.119,1.379-4.498,4.148-4.064l10.778,1.702l-8.096-3.52
	c-2.628-1.142,6.313-8.662,9.046-8.703l14.273-0.215l-10.306-2.843c6.029-3.902,12.479-7.426,19.839-10.128
	c8.018-2.945,9.952-7.567,15.878-12.555l1.658,4.738c2.726-10.199,7.14-20.323,16.821-30.207l-3.791,0.119
	c5.932-9.639,13.36-18.15,25.059-23.428c3.718-1.678,6.836,2.927,3.509,4.524c-9.173,4.409-17.65,12.702-25.842,22.577
	c9.699-8.682,19.407-17.498,28.785-20.73c8.769,10.774,20.37,16.239,32.933,19.901c-18.385-8.822-31.486-18.03-34.708-27.956
	l12.32,11.728C181.417,135.385,177.82,131.459,178.293,126.681z M181.743,73.608c-8.446,18.781-5.865,34.361-4.265,50.227
	c-23.731,5.508-34.717,20.844-44.18,41.382c-5.499,11.937-14.27,20.132-26.678,25.036c-14.25,5.632-31.37,20.968-45.676,30.326
	c-4.906,3.211-6.629,7.033-3.638,12.651c-14.381,9.328-17.322,35.513-0.52,40.449c7.637,2.245,13.222-2.936,9.29-10.536
	c6.796-2.798,14.516-8.678,22.389-15.4c16.532-4.268,25.015-9.185,38.743-17.174c6.204-3.612,14.147-4.266,21.083-2.469
	c4.188,1.081,3.794,5.186-0.354,5.903c-24.223,4.19-21.603,25.17,4.618,24.519c-0.12,8.421-0.288,16.843-0.362,25.265
	c-0.1,11.421-2.937,17.791-10.412,26.84c-7.263,8.802-7.747,10.144-11.276,20.822c-3.787,11.436-7.376,22.599-11.751,33.433
	c-12.709,31.468-17.302,53.142-19.598,87.468c-0.886,13.265-0.644,26.16-0.517,39.393c0.073,7.53-4.039,10.02-11.189,9.993
	c-19.857-0.076-24.494,27.423-10.125,30.576c12.209,2.685,29.474,5.467,41.512,3.893c9.598-1.254,17.877-4.98,23.71-13.273
	c5.344-7.595,5.492-24.001,4.396-32.766l4.027,7.937c3.9-9.525,8.215-18.635,7.582-32.694l2.133,7.581
	c3.604-13.048,7.227-26.085,3.791-42.17l4.264,3.79c1.042-5.809,1.372-11.878-1.066-18.953l3.317,1.422
	c3.604-15.936,8.241-31.527,15.638-46.198c0.822,10.882-3.136,29.308-4.932,46.825c-1.405,13.758-5.278,24.788-6.975,39.092
	c-1.362,11.491-2.542,22.777-4.022,34.265c-0.975,7.569-3.861,12.946-9.167,18.064c-3.419,3.298-4.63,6.253-4.712,11.143
	c-5.545,3.32-4.45,6.985-0.829,10.78c2.603,6.175,10.124,6.773,15.949,7.444c7.485,0.866,17.654,1.864,26.544,2.813
	c13.878,1.482,19.382,1.49,20.512-14.675c1.131-16.234-1.573-21.828,5.529-37.605c6.144-13.639,8.501-26.225,7.757-41.251
	l-4.383-6.041l4.753,2.981c2.233,1.4,3.892-15.03,1.614-14.788l-1.863,0.199c2.22-4.414,4.874-8.395,5.094-14.807l-5.212,5.33
	c3.71-8.834,6.136-16.583,12.871-27.976c3.666-6.206,5.112-11.964,7.995-18.524c3.009-6.847,6.656-13.526,11.368-19.919
	c5.881-7.985,8.081-4.497,11.124-18.277l5.45-20.375c10.92,8.252,23.973,1.459,26.841-11.719
	c2.366-10.863,0.499-14.188,7.277-25.595c3.723-13.319,4.823-32.172,5.685-51.529l13.27,5.806l-7.107,0.71
	c5.868,7.335,19.05,27.065,27.659,29.082c-4.754-3.936-9.362-8.071-12.681-13.964c-4.634-8.217,1.713-13.822,7.976-16.274
	c4.842-1.896,7.982,3.781,6.137,4.771c-6.575,3.529-8.793,9.098-6.408,16.82c-0.968-7.384,2.192-13.071,10.069-16.821
	c-4.917,6.626-6.187,11.962-5.369,16.556c0.728,4.091,4.581,4.463,6.969,1.627c5.335-0.648,7.562,2.557,8.943,6.811
	c-5.158,0.605-9.69-0.13-13.741-1.895c1.774,3.097,5.728,4.109,11.135,3.732c-0.041,1.456,0.735,5.287,1.958,7.74
	c1.149,2.304,3.776,1.964,4.795-1.013c0.602-1.757,1.037-4.266,1.243-7.794c2.767,3.076,1.474,7.658,0.243,12.216
	c-0.615,2.275,4.595,3.865,4.97,1.466l1.894-12.082c1.278,2.921,0.706,7.575-0.164,12.509c-0.674,3.826,4.233,4.241,5.323,0.835
	l1.237-3.866c0.949,4.01,1.353,5.878,3.272,2.156c7.3-14.157,4.119-29.447-10.794-36.803l3.909-1.066
	c-8.316-4.2-6.53-14.119-13.03-18.953c8.767-9.371-11.582-20.063-19.307-22.803l14.748,4.206
	c-7.892-10.163-21.169-10.893-35.802-21.351c-0.49-3.506-1.8-6.248-4.501-7.699l-12.676-15.755
	c7.957-5.97,6.723-26.335,1.265-36.524c-4.1-7.655-15.334-9.061-25.108-9.382c-3.311,22.311-21.187,32.924-21.187,32.924
	c14.99-16.554,17.265-28.522,17.538-33.004c-2.263-0.031-4.373-0.037-6.206-0.093c-0.256-22.04-2.75-37.007-21.144-50.644
	c-15.75-11.68-35.084-14.835-54.058-9.635C195.493,52.206,179.783,60.599,181.743,73.608z M189.155,88.191
	c-6.805,14.441-4.274,28.036-1.135,41.575c0,0-12.731-16.782-4.446-43.485C184.809,82.29,191.157,83.931,189.155,88.191z"/>
<path fill-rule="evenodd" clip-rule="evenodd" d="M197.126,194.473c0-6.608-5.357-11.964-11.964-11.964
	c-1.787,0-3.482,0.392-5.005,1.094c0.303-0.019,0.609-0.029,0.917-0.029c6.706,0,12.142,4.508,12.142,10.069
	c0,5.561-5.436,10.069-12.142,10.069c-1.481,0-2.9-0.22-4.212-0.623c2.151,2.073,5.077,3.348,8.3,3.348
	C191.769,206.437,197.126,201.081,197.126,194.473"/>
<path fill-rule="evenodd" clip-rule="evenodd" d="M205.276,187.026c3.78,0,6.844,2.541,6.844,5.676c0,3.134-3.064,5.676-6.844,5.676
	c-0.835,0-1.635-0.124-2.375-0.351c1.213,1.168,2.862,1.887,4.679,1.887c3.725,0,6.744-3.019,6.744-6.744
	c0-3.725-3.02-6.744-6.744-6.744c-1.007,0-1.963,0.221-2.821,0.617C204.929,187.033,205.102,187.026,205.276,187.026"/>
<path fill-rule="evenodd" clip-rule="evenodd" d="M184.306,155.316c0,0,4.738,7.107,20.257,7.7
	C204.563,163.015,196.981,161.002,184.306,155.316"/>
<path fill-rule="evenodd" clip-rule="evenodd" d="M160.495,150.459c0,0,10.069-7.344,23.692-2.369
	C177.708,140.5,171.321,133.837,160.495,150.459"/>
<path fill-rule="evenodd" clip-rule="evenodd" d="M154.931,182.087c5.791-4.331,12.001-12.775,7.463-20.02
	C161.938,168.093,157.866,176.873,154.931,182.087"/>
<polygon fill-rule="evenodd" clip-rule="evenodd" points="85.541,96.221 106.52,89.777 85.541,83.332 79.096,62.353 72.652,83.332 
	51.673,89.777 72.652,96.221 79.096,117.2 "/>
<polygon fill-rule="evenodd" clip-rule="evenodd" points="122.13,80.176 129.927,82.572 132.323,90.369 134.719,82.572 
	142.516,80.176 134.719,77.78 132.323,69.982 129.927,77.78 "/>
<path fill-rule="evenodd" clip-rule="evenodd" d="M149.206,71.453c0,1.31,1.062,2.372,2.372,2.372c1.31,0,2.372-1.062,2.372-2.372
	s-1.062-2.372-2.372-2.372C150.268,69.081,149.206,70.144,149.206,71.453"/>
<path fill-rule="evenodd" clip-rule="evenodd" d="M161.943,107.521c-1.31,0-2.372,1.063-2.372,2.372c0,1.31,1.062,2.372,2.372,2.372
	c1.31,0,2.372-1.062,2.372-2.372C164.315,108.583,163.253,107.521,161.943,107.521"/>
<polygon fill-rule="evenodd" clip-rule="evenodd" points="124.329,120.121 120.557,107.842 116.785,120.121 104.506,123.893 
	116.785,127.665 120.557,139.944 124.329,127.665 136.608,123.893 "/>
<polygon fill-rule="evenodd" clip-rule="evenodd" points="84.777,141.306 79.722,139.753 78.17,134.699 76.617,139.753 
	71.563,141.306 76.617,142.858 78.17,147.913 79.722,142.858 "/>
<path fill-rule="evenodd" clip-rule="evenodd" d="M125.027,274.618c0-1.602-1.299-2.901-2.901-2.901
	c-1.602,0-2.901,1.299-2.901,2.901c0,1.602,1.299,2.901,2.901,2.901C123.728,277.519,125.027,276.22,125.027,274.618"/>
<path fill-rule="evenodd" clip-rule="evenodd" d="M76.904,270.827c1.602,0,2.901-1.299,2.901-2.901s-1.299-2.901-2.901-2.901
	c-1.602,0-2.901,1.299-2.901,2.901S75.302,270.827,76.904,270.827"/>
<path fill-rule="evenodd" clip-rule="evenodd" d="M32.886,221.954c1.602,0,2.901-1.299,2.901-2.901c0-1.602-1.299-2.901-2.901-2.901
	c-1.602,0-2.901,1.299-2.901,2.901C29.985,220.655,31.284,221.954,32.886,221.954"/>
<path fill-rule="evenodd" clip-rule="evenodd" d="M75.508,202.054c0,0.863,0.7,1.562,1.563,1.562s1.563-0.699,1.563-1.562
	c0-0.863-0.7-1.562-1.563-1.562S75.508,201.191,75.508,202.054"/>
<path fill-rule="evenodd" clip-rule="evenodd" d="M219.849,256.242c0,0-10.306-2.488-26.89-4.739
	C192.959,251.504,207.293,258.967,219.849,256.242"/>
<path fill-rule="evenodd" clip-rule="evenodd" d="M227.432,275.313c0,0-20.138-0.118-47.74-3.908
	C179.692,271.404,208.123,281.591,227.432,275.313"/>
<path fill-rule="evenodd" clip-rule="evenodd" d="M172.113,287.988c0,0-5.568-1.915-11.135-4.028
	C160.978,283.96,161.573,289.263,172.113,287.988"/>
<path fill-rule="evenodd" clip-rule="evenodd" d="M192.142,219.404l31.747,6.515l1.777-19.664l-3.909,17.887
	C221.756,224.142,198.776,218.811,192.142,219.404"/>
<path fill-rule="evenodd" clip-rule="evenodd" d="M161.378,234.996c0,0-1.185-18.006-0.355-39.565
	C161.023,195.431,154.862,226.467,161.378,234.996"/>
<path fill-rule="evenodd" clip-rule="evenodd" d="M131.598,213.834c10.661-2.724,14.807-13.623,14.807-13.623
	C142.378,205.66,131.598,213.834,131.598,213.834"/>
<path fill-rule="evenodd" clip-rule="evenodd" d="M488.121,383.847c6.306-7.742,10.763-17.048,12.7-27.247
	c14.796,9.643,22.798,18.497,20.181,23.912C518.405,385.884,505.888,386.776,488.121,383.847 M381.972,342.411
	c3.005-29.567,27.733-52.63,57.795-52.63c32.089,0,58.102,26.278,58.102,58.695c0,13.148-4.28,25.286-11.509,35.07
	c-14.961-2.625-33.401-7.845-52.695-15.292C412.706,360.164,394.576,350.927,381.972,342.411z M379.166,340.461
	c-11.67-8.344-17.676-15.832-15.359-20.626c2.079-4.301,10.518-5.732,22.921-4.627C382.508,322.785,379.841,331.345,379.166,340.461
	z M333.296,312.702c-4.555,6.934,14.239,22.423,45.991,38.403c1.602,16.427,9.669,30.957,21.627,41.014
	c-10.929-9.936-18.106-24.002-19.124-39.765c13.075,6.452,28.215,12.951,44.738,18.966c58.557,21.317,112.313,28.489,118.824,18.576
	c4.429-6.742-13.685-20.615-44.153-35.507c0.463-3.04,0.703-6.153,0.703-9.322c0-33.941-27.513-61.454-61.453-61.454
	c-22.711,0-42.543,12.32-53.18,30.641C358.261,307.73,337.25,306.682,333.296,312.702z"/>
<path fill-rule="evenodd" clip-rule="evenodd" d="M333.743,282.458c0,1.602,1.299,2.901,2.901,2.901
	c1.602,0,2.901-1.299,2.901-2.901s-1.299-2.901-2.901-2.901C335.042,279.556,333.743,280.856,333.743,282.458"/>
<path fill-rule="evenodd" clip-rule="evenodd" d="M403.888,222.366c0,1.263,1.024,2.287,2.287,2.287
	c1.263,0,2.287-1.024,2.287-2.287c0-1.263-1.024-2.287-2.287-2.287C404.912,220.079,403.888,221.103,403.888,222.366"/>
<path fill-rule="evenodd" clip-rule="evenodd" d="M494.546,243.073c-1.602,0-2.901,1.299-2.901,2.901
	c0,1.602,1.299,2.901,2.901,2.901c1.602,0,2.901-1.299,2.901-2.901C497.447,244.372,496.148,243.073,494.546,243.073"/>
<path fill-rule="evenodd" clip-rule="evenodd" d="M507.694,280.268c-1.602,0-2.901,1.299-2.901,2.901
	c0,1.602,1.299,2.901,2.901,2.901s2.901-1.299,2.901-2.901C510.596,281.568,509.297,280.268,507.694,280.268"/>
<path fill-rule="evenodd" clip-rule="evenodd" d="M466.649,278.786c0-1.602-1.299-2.901-2.901-2.901
	c-1.602,0-2.901,1.299-2.901,2.901c0,1.602,1.299,2.901,2.901,2.901C465.35,281.687,466.649,280.388,466.649,278.786"/>
<path fill-rule="evenodd" clip-rule="evenodd" d="M436.62,257.166c1.602,0,2.901-1.299,2.901-2.901c0-1.602-1.299-2.901-2.901-2.901
	c-1.602,0-2.901,1.299-2.901,2.901C433.719,255.867,435.017,257.166,436.62,257.166"/>
<path fill-rule="evenodd" clip-rule="evenodd" d="M530.217,181.536c0,1.263,1.024,2.287,2.287,2.287
	c1.263,0,2.287-1.024,2.287-2.287s-1.024-2.287-2.287-2.287C531.241,179.249,530.217,180.273,530.217,181.536"/>
<path fill-rule="evenodd" clip-rule="evenodd" d="M475.94,84.726c1.554,0,2.813-1.259,2.813-2.813c0-1.554-1.259-2.813-2.813-2.813
	s-2.813,1.26-2.813,2.813C473.127,83.467,474.387,84.726,475.94,84.726"/>
<path fill-rule="evenodd" clip-rule="evenodd" d="M501.231,120.968c-1.263,0-2.287,1.024-2.287,2.287
	c0,1.263,1.024,2.287,2.287,2.287c1.263,0,2.287-1.024,2.287-2.287C503.518,121.992,502.494,120.968,501.231,120.968"/>
<path fill-rule="evenodd" clip-rule="evenodd" d="M443.922,114.575c0-44.455-36.037-80.492-80.492-80.492
	c-23.717,0-45.038,10.257-59.768,26.577c14.217-13.116,33.214-21.128,54.082-21.128c44.063,0,79.781,35.719,79.781,79.781
	c0,26.095-12.527,49.263-31.896,63.819C428.607,168.958,443.922,143.556,443.922,114.575"/>
<polygon fill-rule="evenodd" clip-rule="evenodd" points="340.264,384.716 336.492,372.438 332.72,384.716 320.44,388.488 
	332.72,392.26 336.492,404.54 340.264,392.26 352.543,388.488 "/>
<polygon fill-rule="evenodd" clip-rule="evenodd" points="317.588,382.389 314.068,381.307 312.986,377.787 311.905,381.307 
	308.384,382.389 311.905,383.47 312.986,386.99 314.068,383.47 "/>
<polygon fill-rule="evenodd" clip-rule="evenodd" points="298.393,371.793 306.897,369.181 298.393,366.568 295.78,358.064 
	293.167,366.568 284.663,369.181 293.167,371.793 295.78,380.297 "/>
<path fill-rule="evenodd" clip-rule="evenodd" d="M261.119,528.594c0-1.602-1.299-2.901-2.901-2.901
	c-1.602,0-2.901,1.299-2.901,2.901c0,1.602,1.299,2.901,2.901,2.901C259.82,531.495,261.119,530.196,261.119,528.594"/>
<path fill-rule="evenodd" clip-rule="evenodd" d="M42.626,415.465c1.602,0,2.901-1.299,2.901-2.901c0-1.602-1.299-2.901-2.901-2.901
	c-1.602,0-2.901,1.299-2.901,2.901C39.725,414.166,41.024,415.465,42.626,415.465"/>
<path fill-rule="evenodd" clip-rule="evenodd" d="M70.051,401.548c0,1.602,1.299,2.901,2.901,2.901c1.602,0,2.901-1.299,2.901-2.901
	c0-1.602-1.299-2.901-2.901-2.901C71.35,398.646,70.051,399.945,70.051,401.548"/>
<path fill-rule="evenodd" clip-rule="evenodd" d="M142.146,330.633c12.557,1.381,25.114,3.79,25.114,3.79
	C160.522,329.47,150.028,328.46,142.146,330.633"/>
<path fill-rule="evenodd" clip-rule="evenodd" d="M208.836,328.737c14.333,0.593,27.719,4.502,27.719,4.502
	C229.551,327.201,217.426,326.576,208.836,328.737"/>
<path fill-rule="evenodd" clip-rule="evenodd" d="M102.228,482.26c0,0,6.16-6.871,2.369-31.747
	C104.598,450.513,101.755,476.337,102.228,482.26"/>
<path fill-rule="evenodd" clip-rule="evenodd" d="M125.21,498.133c-4.529-8.698-13.741-8.055-13.741-8.055L125.21,498.133z"/>
<path fill-rule="evenodd" clip-rule="evenodd" d="M183.018,491.5c11.964,2.277,23.929,5.212,23.929,5.212
	C201.546,490.582,190.452,489.959,183.018,491.5"/>
<path fill-rule="evenodd" clip-rule="evenodd" d="M205.65,520.524c0,0-4.857,5.923-2.133,14.807
	C203.517,535.332,206.242,528.343,205.65,520.524"/>
<path fill-rule="evenodd" clip-rule="evenodd" d="M210.266,464.136c5.325,4.434,7.148,12.607,3.672,22.744
	C214.908,476.673,213.075,470.101,210.266,464.136"/>
<path fill-rule="evenodd" clip-rule="evenodd" d="M295.675,181.497c-18.243,14.215-3.79,19.901-3.79,19.901
	C285.201,195.583,290.553,186.395,295.675,181.497"/>
<path fill-rule="evenodd" clip-rule="evenodd" d="M339.979,204.241c0,0-6.397,9.24-12.557,11.372
	C334.072,216.277,338.555,209.936,339.979,204.241"/>
<path fill-rule="evenodd" clip-rule="evenodd" d="M217.475,151.643c0,0,6.752,3.672,16.229-1.54
	C233.704,150.104,225.59,151.502,217.475,151.643"/>
</svg>
