<?xml version="1.0" standalone="no"?>
<!DOCTYPE svg PUBLIC "-//W3C//DTD SVG 20010904//EN"
 "http://www.w3.org/TR/2001/REC-SVG-20010904/DTD/svg10.dtd">
<svg version="1.0" xmlns="http://www.w3.org/2000/svg"
 width="512.000000pt" height="512.000000pt" viewBox="0 0 512.000000 512.000000"
 preserveAspectRatio="xMidYMid meet">

<g transform="translate(0.000000,512.000000) scale(0.100000,-0.100000)"
fill="#000000" stroke="none">
<path d="M1035 4501 c-69 -17 -125 -63 -161 -131 -18 -33 -19 -87 -24 -1150
l-5 -1115 -348 -483 c-192 -266 -357 -498 -368 -515 -39 -65 -18 -160 44 -197
31 -20 69 -20 2369 -20 1326 0 2347 4 2360 9 61 23 97 94 84 163 -4 21 -142
221 -376 547 l-370 514 -2 1106 c-3 1057 -4 1108 -22 1141 -26 49 -64 88 -111
113 l-40 22 -1500 2 c-825 0 -1513 -2 -1530 -6z m3029 -167 l26 -27 0 -1068 0
-1069 -1545 0 -1545 0 0 1066 0 1066 29 29 29 29 1490 0 1489 0 27 -26z m424
-2807 l353 -492 -2287 -3 c-1258 -1 -2289 0 -2292 2 -2 3 155 225 349 495
l353 491 1585 0 1586 -1 353 -492z"/>
<path d="M1806 3531 c-212 -212 -239 -243 -239 -271 0 -28 26 -58 229 -261
126 -126 237 -232 247 -235 51 -16 104 44 85 96 -5 14 -93 109 -196 213 l-187
187 192 193 c106 105 197 204 202 220 19 50 -15 97 -70 97 -17 0 -91 -67 -263
-239z"/>
<path d="M2756 3748 c-42 -39 -536 -883 -536 -917 0 -20 9 -36 26 -50 34 -27
57 -26 88 2 14 12 140 216 281 454 184 311 255 440 255 462 0 64 -66 92 -114
49z"/>
<path d="M2970 3750 c-12 -12 -20 -33 -20 -52 0 -29 23 -55 202 -235 l203
-203 -198 -198 c-187 -187 -198 -201 -195 -232 4 -41 45 -75 80 -67 12 4 128
111 256 240 175 176 232 239 232 257 0 19 -59 84 -243 267 -259 259 -272 268
-317 223z"/>
<path d="M1087 1913 c-9 -2 -24 -18 -33 -35 -13 -25 -13 -35 -3 -60 16 -39 43
-48 140 -48 108 0 139 17 139 75 0 36 -8 48 -37 64 -21 10 -169 14 -206 4z"/>
<path d="M1526 1899 c-19 -15 -26 -30 -26 -54 0 -24 7 -39 26 -54 23 -18 41
-21 121 -21 86 0 96 2 118 25 32 31 32 69 0 100 -22 23 -32 25 -118 25 -80 0
-98 -3 -121 -21z"/>
<path d="M1975 1895 c-14 -13 -25 -36 -25 -50 0 -14 11 -37 25 -50 22 -23 32
-25 120 -25 88 0 98 2 120 25 32 31 32 69 0 100 -22 23 -32 25 -120 25 -88 0
-98 -2 -120 -25z"/>
<path d="M2442 1910 c-27 -11 -44 -52 -36 -86 11 -42 40 -54 137 -54 117 0
147 15 147 77 0 54 -36 73 -139 72 -47 0 -96 -4 -109 -9z"/>
<path d="M2887 1900 c-37 -29 -38 -80 -1 -109 23 -18 41 -21 119 -21 112 0
139 15 139 74 0 59 -20 70 -132 74 -87 3 -100 2 -125 -18z"/>
<path d="M3335 1895 c-14 -13 -25 -36 -25 -50 0 -14 11 -37 25 -50 22 -23 32
-25 120 -25 88 0 98 2 120 25 14 13 25 36 25 50 0 14 -11 37 -25 50 -22 23
-32 25 -120 25 -88 0 -98 -2 -120 -25z"/>
<path d="M3789 1901 c-17 -13 -23 -29 -23 -56 0 -61 27 -75 139 -75 111 0 145
18 145 75 0 57 -34 75 -145 75 -76 0 -97 -3 -116 -19z"/>
<path d="M846 1639 c-31 -25 -34 -66 -7 -100 18 -23 25 -24 146 -24 121 0 128
1 146 24 27 34 24 75 -7 100 -23 18 -41 21 -139 21 -98 0 -116 -3 -139 -21z"/>
<path d="M1356 1639 c-31 -25 -34 -66 -7 -100 18 -23 25 -24 146 -24 121 0
128 1 146 24 27 34 24 75 -7 100 -23 18 -41 21 -139 21 -98 0 -116 -3 -139
-21z"/>
<path d="M1866 1639 c-33 -26 -36 -77 -5 -105 18 -17 37 -19 146 -19 119 0
126 1 144 24 27 34 24 75 -7 100 -23 18 -41 21 -139 21 -98 0 -116 -3 -139
-21z"/>
<path d="M2372 1637 c-28 -30 -29 -78 -1 -103 18 -17 37 -19 146 -19 119 0
126 1 144 24 26 32 24 67 -6 96 -23 24 -30 25 -143 25 -111 0 -120 -1 -140
-23z"/>
<path d="M2882 1640 c-29 -27 -29 -80 -1 -106 18 -17 37 -19 146 -19 119 0
126 1 144 24 26 32 24 67 -6 96 -23 24 -30 25 -143 25 -105 0 -121 -2 -140
-20z"/>
<path d="M3392 1640 c-29 -27 -29 -80 -1 -106 18 -17 37 -19 146 -19 119 0
126 1 144 24 26 32 24 67 -6 96 -23 24 -30 25 -143 25 -105 0 -121 -2 -140
-20z"/>
<path d="M3900 1640 c-27 -27 -26 -81 1 -106 18 -17 37 -19 146 -19 119 0 126
1 144 24 26 32 24 67 -6 96 -23 24 -30 25 -145 25 -107 0 -122 -2 -140 -20z"/>
<path d="M715 1363 c-55 -14 -75 -83 -35 -123 18 -18 33 -20 140 -20 115 0
122 1 145 25 14 13 25 31 25 39 0 31 -24 65 -53 76 -30 10 -183 12 -222 3z"/>
<path d="M1164 1356 c-51 -23 -59 -72 -19 -111 23 -24 30 -25 145 -25 107 0
122 2 140 20 27 27 26 81 -1 106 -17 15 -39 19 -127 22 -76 2 -116 -2 -138
-12z"/>
<path d="M1659 1359 c-26 -10 -49 -45 -49 -75 0 -8 11 -26 25 -39 l24 -25 891
0 c877 0 890 0 910 20 27 27 26 81 -1 106 -20 18 -51 19 -898 21 -544 1 -886
-2 -902 -8z"/>
<path d="M3685 1363 c-55 -14 -75 -83 -35 -123 18 -18 33 -20 144 -20 123 0
125 0 145 26 36 46 23 94 -30 113 -31 11 -185 13 -224 4z"/>
<path d="M4139 1359 c-26 -10 -49 -45 -49 -75 0 -8 11 -26 25 -39 23 -24 30
-25 143 -25 99 0 123 3 141 18 30 24 31 76 2 105 -19 20 -33 22 -129 24 -59 1
-119 -2 -133 -8z"/>
</g>
</svg>
